<svg xmlns="http://www.w3.org/2000/svg" width="16" height="16" fill="currentColor" class="bi bi-link-45deg" viewBox="0 0 16 16">
 <style>
    .fill-turquoise { fill: #00BD9C; }
    .fill-emerald { fill: #52D88B; }
    .fill-peter-river { fill: #2C96DF; }
    .fill-amethyst { fill: #9C56B8; }
    .fill-wet-asphalt { fill:#34495E; }
    .fill-green-sea { fill: #189F86; }
    .fill-nephritis { fill: #28AE61; }
    .fill-belize-hole { fill: #2A80B9; }
    .fill-wisteria { fill: #2A80B9; }
    .fill-midnight-blue { fill: #2D3E50; }
    .fill-sunflower { color: #F1C50D; fill: #F1C50D; }
    .fill-carrot { fill: #E77E22; }
    .fill-alizarin { fill: #E74D3D; }
    .fill-clouds { color: #ECF0F1; fill: #ECF0F1; }
    .fill-concrete { fill: #95A5A5; }
  </style>
  <path d="M4.715 6.542L3.343 7.914a3 3 0 1 0 4.243 4.243l1.828-1.829A3 3 0 0 0 8.586 5.5L8 6.086a1.001 1.001 0 0 0-.154.199 2 2 0 0 1 .861 3.337L6.88 11.45a2 2 0 1 1-2.83-2.83l.793-.792a4.018 4.018 0 0 1-.128-1.287z" class="fill-clouds"/>
  <path d="M6.586 4.672A3 3 0 0 0 7.414 9.5l.775-.776a2 2 0 0 1-.896-3.346L9.12 3.55a2 2 0 0 1 2.83 2.83l-.793.792c.112.42.155.855.128 1.287l1.372-1.372a3 3 0 0 0-4.243-4.243L6.586 4.672z" class="fill-clouds"/>
</svg>