<svg xmlns="http://www.w3.org/2000/svg" width="16" height="16" fill="currentColor" class="bi bi-star-half" viewBox="0 0 16 16">
 <style>
    .fill-turquoise { fill: #00BD9C; }
    .fill-emerald { fill: #52D88B; }
    .fill-peter-river { fill: #2C96DF; }
    .fill-amethyst { fill: #9C56B8; }
    .fill-wet-asphalt { fill:#34495E; }
    .fill-green-sea { fill: #189F86; }
    .fill-nephritis { fill: #28AE61; }
    .fill-belize-hole { fill: #2A80B9; }
    .fill-wisteria { fill: #2A80B9; }
    .fill-midnight-blue { fill: #2D3E50; }
    .fill-sunflower { fill: #F1C50D; }
    .fill-carrot { fill: #E77E22; }
    .fill-alizarin { fill: #E74D3D; }
    .fill-clouds { fill: #ECF0F1; }
    .fill-concrete { fill: #95A5A5; }
  </style>
  <path d="M5.354 5.119L7.538.792A.516.516 0 0 1 8 .5c.183 0 .366.097.465.292l2.184 4.327 4.898.696A.537.537 0 0 1 16 6.32a.55.55 0 0 1-.17.445l-3.523 3.356.83 4.73c.078.443-.36.79-.746.592L8 13.187l-4.389 2.256a.519.519 0 0 1-.146.05c-.341.06-.668-.254-.6-.642l.83-4.73L.173 6.765a.55.55 0 0 1-.171-.403.59.59 0 0 1 .084-.302.513.513 0 0 1 .37-.245l4.898-.696zM8 12.027c.08 0 .16.018.232.056l3.686 1.894-.694-3.957a.564.564 0 0 1 .163-.505l2.906-2.77-4.052-.576a.525.525 0 0 1-.393-.288L8.002 2.223 8 2.226v9.8z" class="fill-sunflower"/>
</svg>