<svg xmlns="http://www.w3.org/2000/svg" width="16" height="16" fill="currentColor" class="bi bi-star" viewBox="0 0 16 16">
 <style>
    .fill-turquoise { fill: #00BD9C; }
    .fill-emerald { fill: #52D88B; }
    .fill-peter-river { fill: #2C96DF; }
    .fill-amethyst { fill: #9C56B8; }
    .fill-wet-asphalt { fill:#34495E; }
    .fill-green-sea { fill: #189F86; }
    .fill-nephritis { fill: #28AE61; }
    .fill-belize-hole { fill: #2A80B9; }
    .fill-wisteria { fill: #2A80B9; }
    .fill-midnight-blue { fill: #2D3E50; }
    .fill-sunflower { color: #F1C50D; fill: #F1C50D; }
    .fill-carrot { fill: #E77E22; }
    .fill-alizarin { fill: #E74D3D; }
    .fill-clouds { fill: #ECF0F1; }
    .fill-concrete { fill: #95A5A5; }
  </style>
  <path d="M2.866 14.85c-.078.444.36.791.746.593l4.39-2.256 4.389 2.256c.386.198.824-.149.746-.592l-.83-4.73 3.523-3.356c.329-.314.158-.888-.283-.95l-4.898-.696L8.465.792a.513.513 0 0 0-.927 0L5.354 5.12l-4.898.696c-.441.062-.612.636-.283.95l3.523 3.356-.83 4.73zm4.905-2.767l-3.686 1.894.694-3.957a.565.565 0 0 0-.163-.505L1.71 6.745l4.052-.576a.525.525 0 0 0 .393-.288l1.847-3.658 1.846 3.658a.525.525 0 0 0 .393.288l4.052.575-2.906 2.77a.564.564 0 0 0-.163.506l.694 3.957-3.686-1.894a.503.503 0 0 0-.461 0z" class="fill-sunflower"/>
</svg>